<svg width="30" height="25" viewBox="0 0 30 25" fill="none" xmlns="http://www.w3.org/2000/svg">
<path d="M0.00341797 14.5848C1.51529 13.207 3.02717 11.8149 4.5253 10.4372C7.98887 7.26554 11.4387 4.09388 14.8885 0.907865C14.9435 0.85046 15.0122 0.807406 15.0809 0.75C19.9464 5.34245 24.7982 9.9349 29.6499 14.5273C29.3201 15.1732 28.6053 15.4745 27.8769 15.288C27.2584 15.1301 26.7086 14.8144 26.2413 14.3695C22.5991 10.9682 18.9706 7.56692 15.3283 4.15128C15.2459 4.07952 15.1634 4.00777 15.0672 3.92166C14.3937 4.51007 13.7202 5.09847 13.0605 5.70123C9.72065 8.65762 6.36704 11.614 3.02717 14.556C2.83475 14.7283 2.61484 14.9005 2.39493 15.0296C1.44657 15.6324 0.718123 15.5176 0.00341797 14.6422C0.00341797 14.6278 0.00341797 14.5991 0.00341797 14.5848Z" fill="white"/>
<path d="M12.5208 24.8281C12.3955 24.8281 12.2952 24.8281 12.2075 24.8281C10.0897 24.8281 7.98442 24.8281 5.86663 24.8281C5.30272 24.8281 5.11475 24.6487 5.11475 24.072C5.11475 20.6116 5.11475 17.1641 5.11475 13.7037C5.11475 13.6012 5.16487 13.4474 5.25259 13.3833C8.49821 10.5894 11.7438 7.80831 15.002 5.0144C15.027 4.98876 15.0646 4.97595 15.1147 4.9375C15.3027 5.11693 15.5032 5.28354 15.7037 5.46296C18.5483 8.05182 21.3929 10.6407 24.2501 13.2295C24.4506 13.409 24.5383 13.5884 24.5383 13.8703C24.5383 17.1897 24.5383 20.5091 24.5383 23.8413C24.5383 24.0079 24.5258 24.1873 24.4757 24.3411C24.4005 24.5974 24.225 24.7512 23.9619 24.7769C23.8616 24.7769 23.7488 24.8025 23.6486 24.8025C21.5684 24.8025 19.4757 24.8025 17.3955 24.8025C17.3203 24.8025 17.2576 24.8025 17.1448 24.7897C17.1448 24.6743 17.1448 24.5718 17.1448 24.4693C17.1448 22.7263 17.1448 20.9705 17.1448 19.2275C17.1448 18.5226 16.8441 18.1894 16.1674 18.1766C15.2275 18.1637 14.2877 18.1766 13.3478 18.1766C12.809 18.1766 12.5584 18.4713 12.5458 19.0224C12.5458 20.8423 12.5458 22.6622 12.5458 24.4821C12.5458 24.5846 12.5458 24.6871 12.5458 24.8281H12.5208Z" fill="white"/>
<path d="M24.5241 10.1719C24.148 9.85493 23.8152 9.58121 23.497 9.30748C22.8749 8.78885 22.2529 8.27021 21.6453 7.73717C21.5729 7.66514 21.4717 7.56429 21.4717 7.47785C21.4717 6.28211 21.4717 5.10077 21.4717 3.89062H24.5386V10.1719H24.5241Z" fill="white"/>
</svg>
