<svg width="16" height="26" viewBox="0 0 16 26" fill="none" xmlns="http://www.w3.org/2000/svg">
<g clip-path="url(#clip0_146_685)">
<path d="M6.17212 25.8281C5.81409 25.6663 5.42208 25.5577 5.10389 25.3326C4.33951 24.7912 4.00645 23.9883 4.00645 23.0258C4.00645 22.7806 4.00645 22.5359 4.00645 22.2761C3.94431 22.2577 3.88747 22.2403 3.83063 22.2235C3.43489 22.107 3.19851 21.8142 3.15708 21.3859C3.15336 21.3456 3.15283 21.3041 3.15283 21.2633C3.15283 17.9761 3.15283 14.6895 3.15283 11.4023C3.15283 11.3463 3.1608 11.2903 3.16824 11.2007C4.29702 11.5451 5.41942 11.5535 6.58007 11.1918C6.58007 11.3239 6.58007 11.4174 6.58007 11.5104C6.58007 14.7074 6.58007 17.9044 6.58007 21.1015C6.58007 21.8187 6.38566 22.0869 5.74451 22.2666C5.74451 22.611 5.71954 22.9553 5.75088 23.2935C5.78913 23.7022 6.12218 24.0107 6.51155 24.0135C7.68282 24.0225 8.8541 24.0219 10.0254 24.0135C10.3972 24.0113 10.7069 23.7263 10.7844 23.3433C10.8115 23.2089 10.8216 23.0678 10.8216 22.9301C10.8248 20.5752 10.8163 18.2202 10.8301 15.8658C10.8381 14.5372 11.8537 13.4062 13.1185 13.2729C14.3647 13.1419 15.5535 14.0126 15.8477 15.283C15.9003 15.5114 15.9349 15.7499 15.9365 15.9845C15.9455 17.1458 15.9439 18.3064 15.9391 19.4677C15.937 20.0001 15.6353 20.3803 15.1923 20.4329C14.6547 20.4962 14.2292 20.1088 14.2271 19.5388C14.2228 18.3775 14.2271 17.2169 14.225 16.0556C14.2239 15.5825 14.0194 15.2589 13.6454 15.1228C13.1238 14.933 12.5724 15.3115 12.5459 15.8916C12.5289 16.2667 12.5379 16.6435 12.5374 17.0198C12.5368 19.0147 12.5379 21.0096 12.5368 23.0051C12.5363 23.9749 12.2059 24.7884 11.4309 25.3338C11.1122 25.5577 10.7202 25.6663 10.3616 25.827H6.17212V25.8281Z" fill="white"/>
<path d="M9.12361 5.20816C9.07261 7.80834 7.15023 9.76799 4.6632 9.67225C2.45558 9.5877 0.58632 7.68516 0.608099 5.15105C0.631471 2.52007 2.70736 0.580015 5.09028 0.709352C7.29684 0.829171 9.12254 2.74291 9.12361 5.20816Z" fill="white"/>
</g>
<defs>
<clipPath id="clip0_146_685">
<rect width="15.3344" height="25.125" fill="white" transform="translate(0.608398 0.703125)"/>
</clipPath>
</defs>
</svg>
