<svg width="28" height="25" viewBox="0 0 28 25" fill="none" xmlns="http://www.w3.org/2000/svg">
<path d="M0.745117 7.64965C0.821556 7.25709 0.872516 6.85794 0.977266 6.47416C1.69424 3.84122 3.29238 2.02635 5.7986 1.16286C8.12575 0.361628 10.3326 0.737345 12.349 2.18748C12.7652 2.48629 13.1283 2.86567 13.5062 3.21869C13.6846 3.38494 13.8396 3.57756 14.0151 3.76944C14.3867 3.40398 14.7193 3.05536 15.0732 2.73091C16.624 1.31081 18.4408 0.638472 20.504 0.82157C23.4476 1.08303 25.527 2.6672 26.7394 5.43637C27.3113 6.74222 27.438 8.1323 27.2299 9.5546C26.9758 11.2904 26.1965 12.7317 25.004 13.9592C21.5769 17.4864 18.1556 21.0194 14.7321 24.5503C14.2055 25.0937 13.8467 25.0937 13.3215 24.5503C9.88527 20.9945 6.45046 17.4373 3.01211 13.8838C1.92709 12.7625 1.19314 11.4456 0.886671 9.88344C0.83642 9.62345 0.792538 9.36125 0.745117 9.09979C0.745117 8.61641 0.745117 8.13303 0.745117 7.64965Z" fill="white"/>
</svg>
