<svg width="30" height="27" viewBox="0 0 30 27" fill="none" xmlns="http://www.w3.org/2000/svg">
<path d="M30 9.48052C29.9033 9.92265 29.8113 10.3654 29.7088 10.8063C29.4615 11.8697 28.9834 12.821 28.3236 13.6729C28.0002 14.0905 27.6463 14.487 27.2783 14.8645C24.0252 18.2008 20.7668 21.5316 17.5061 24.8607C16.8656 25.5143 16.2006 26.1428 15.5619 26.7988C15.3182 27.0492 14.7193 27.1079 14.3186 26.7293C14.2758 26.6885 14.2354 26.6454 14.1937 26.6029C10.3078 22.6292 6.4207 18.6567 2.53711 14.6805C1.31602 13.4303 0.499805 11.9469 0.126562 10.2162C0.075 9.97357 0.0416016 9.72615 0 9.48052C0 8.82153 0 8.16194 0 7.50295C0.0421875 7.25733 0.0738281 7.00991 0.127148 6.76728C0.570703 4.74838 1.56387 3.06975 3.15937 1.79311C4.7373 0.530846 6.53496 -0.0640422 8.55 0.00545127C9.53144 0.0389998 10.4713 0.216328 11.3789 0.590754C12.2936 0.967576 13.1326 1.47021 13.8545 2.16634C14.2465 2.54436 14.6443 2.91699 15.0492 3.3004C15.3146 3.02542 15.5771 2.75763 15.835 2.48505C16.5451 1.7338 17.373 1.16228 18.3082 0.740524C19.7051 0.11029 21.1535 -0.101185 22.6711 0.0659585C23.6461 0.173194 24.5613 0.457758 25.4344 0.890294C26.5535 1.44564 27.4869 2.25021 28.2568 3.24229C28.9529 4.13971 29.4533 5.14857 29.7404 6.25926C29.8459 6.66903 29.915 7.08839 30.0006 7.50355V9.48112L30 9.48052ZM14.9531 24.8092C16.452 23.3067 17.9426 21.8276 19.4162 20.3305C21.6053 18.1061 23.7832 15.8703 25.9629 13.6363C26.209 13.3841 26.4387 13.1145 26.6742 12.851C27.6223 11.7912 28.0969 10.5103 28.2305 9.10909C28.3512 7.84323 28.115 6.61631 27.5379 5.48106C26.9684 4.36077 26.1592 3.46215 25.0934 2.80316C23.6291 1.89795 22.0494 1.59961 20.39 1.94707C19.1244 2.21247 17.9977 2.81694 17.0807 3.78326C16.6523 4.23497 16.2029 4.66571 15.7793 5.12161C15.3041 5.63322 14.7076 5.62543 14.2225 5.12101C13.7297 4.60819 13.2521 4.07621 12.7248 3.60294C12.3023 3.22432 11.8436 2.86786 11.3514 2.59648C10.0148 1.85901 8.5875 1.63615 7.08398 1.92491C5.90566 2.15136 4.86211 2.66717 3.97969 3.47533C2.75098 4.601 2.00684 6.00345 1.80937 7.70365C1.65996 8.99107 1.85742 10.2006 2.39121 11.3712C2.75918 12.1788 3.28887 12.8617 3.89297 13.4824C7.1168 16.7953 10.3529 20.0956 13.5844 23.4008C14.0402 23.8669 14.4937 24.3347 14.9543 24.8074L14.9531 24.8092Z" fill="black"/>
</svg>
