<svg width="30" height="27" viewBox="0 0 30 27" fill="none" xmlns="http://www.w3.org/2000/svg">
<path d="M0 7.69568C0.0862758 7.25785 0.143793 6.81267 0.262023 6.38464C1.07126 3.44808 2.87506 1.42394 5.70379 0.460881C8.3304 -0.432747 10.8212 -0.0137058 13.0971 1.60365C13.5669 1.93692 13.9767 2.36005 14.4033 2.75377C14.6046 2.93919 14.7795 3.15402 14.9776 3.36803C15.397 2.96043 15.7725 2.57161 16.1719 2.20975C17.9222 0.625884 19.9728 -0.12398 22.3015 0.0802313C25.6239 0.371845 27.9709 2.13868 29.3393 5.22717C29.9848 6.68361 30.1278 8.23398 29.893 9.82029C29.6062 11.7562 28.7266 13.3638 27.3806 14.7328C23.5125 18.6667 19.6509 22.6072 15.7869 26.5452C15.1925 27.1513 14.7875 27.1513 14.1948 26.5452C10.3163 22.5794 6.43953 18.612 2.55872 14.6487C1.33408 13.3981 0.505672 11.9294 0.15977 10.1871C0.103052 9.89708 0.0535229 9.60465 0 9.31303C0 8.77392 0 8.2348 0 7.69568ZM14.9441 24.8846C15.0391 24.802 15.0703 24.7784 15.0967 24.7506C18.8313 20.9482 22.5731 17.1523 26.2973 13.3384C27.9278 11.6688 28.5557 9.6267 28.1491 7.31585C27.2863 2.40906 21.6496 0.159465 17.764 3.16791C17.0227 3.74215 16.3924 4.46832 15.7182 5.13242C15.2221 5.62089 14.7763 5.63069 14.2922 5.14059C13.8624 4.70521 13.4359 4.26656 13.0085 3.82792C11.8869 2.6778 10.5376 1.98266 8.9575 1.83481C6.93641 1.64612 5.15498 2.25957 3.69867 3.72091C2.17527 5.25004 1.55456 7.14022 1.77265 9.29669C1.93721 10.923 2.66976 12.2782 3.80173 13.4307C7.45327 17.149 11.0928 20.8804 14.7356 24.6076C14.8107 24.6844 14.8666 24.7816 14.9425 24.8837L14.9441 24.8846Z" fill="#FF0000"/>
<path d="M14.9439 24.8847C14.868 24.7826 14.8129 24.6854 14.737 24.6086C11.0943 20.8806 7.45472 17.15 3.80318 13.4317C2.67121 12.2792 1.93867 10.924 1.7741 9.29769C1.55522 7.14122 2.17592 5.25104 3.70013 3.7219C5.15643 2.26057 6.93707 1.6463 8.95896 1.83581C10.5391 1.98366 11.8875 2.67879 13.0099 3.82891C13.4373 4.26674 13.8639 4.70539 14.2937 5.14158C14.7778 5.63169 15.2235 5.62189 15.7196 5.13341C16.3939 4.46932 17.0233 3.74314 17.7655 3.1689C21.6511 0.161276 27.2878 2.41087 28.1505 7.31684C28.5571 9.62769 27.9292 11.6698 26.2988 13.3394C22.5745 17.1533 18.8327 20.9492 15.0981 24.7516C15.071 24.7794 15.0398 24.803 14.9455 24.8855L14.9439 24.8847Z" fill="#FF0000"/>
</svg>
