<svg width="22" height="25" viewBox="0 0 22 25" fill="none" xmlns="http://www.w3.org/2000/svg">
<g clip-path="url(#clip0_105_1293)">
<path d="M11.6611 0.75C12.1379 0.858689 12.6326 0.919002 13.0884 1.08486C15.5885 1.9927 17.0935 3.74618 17.4256 6.35975C17.8476 9.6776 15.6286 12.6417 12.2954 13.3341C8.91815 14.0358 5.45933 11.8024 4.74347 8.45814C3.99319 4.95056 6.21854 1.60192 9.79274 0.862459C10.0005 0.819109 10.2115 0.787067 10.4206 0.75C10.8343 0.75 11.248 0.75 11.6611 0.75Z" fill="white"/>
<path d="M11.0417 24.8281C7.74221 24.8281 4.44212 24.8281 1.14266 24.8281C0.566401 24.8281 0.303133 24.5655 0.305682 23.9944C0.322256 19.8435 3.35143 16.0488 7.42922 15.1196C8.13488 14.9588 8.87242 14.8997 9.59784 14.8695C10.5897 14.8281 11.5854 14.8469 12.5792 14.862C15.1539 14.8997 17.3327 15.8553 19.1239 17.6647C20.5059 19.0613 21.3467 20.7369 21.6636 22.6606C21.7369 23.1067 21.7566 23.564 21.7726 24.017C21.7917 24.5567 21.5074 24.8287 20.9649 24.8287C17.6572 24.8287 14.3494 24.8287 11.0417 24.8287V24.8281Z" fill="white"/>
</g>
<defs>
<clipPath id="clip0_105_1293">
<rect width="21.4682" height="24.0781" fill="white" transform="translate(0.305664 0.75)"/>
</clipPath>
</defs>
</svg>
