<svg width="20" height="19" viewBox="0 0 20 19" fill="none" xmlns="http://www.w3.org/2000/svg">
<path d="M18.688 10.276C18.4681 10.6169 18.2492 10.6376 17.9631 10.344C15.297 7.60792 12.6308 4.87185 9.96466 2.13464C9.9209 2.08973 9.88499 2.03446 9.80308 1.92967C9.74248 2.02524 9.71331 2.09434 9.66506 2.14385C7.00452 4.87761 4.34174 7.60907 1.68008 10.3417C1.5544 10.4706 1.42648 10.5847 1.22787 10.5294C0.996713 10.4637 0.88338 10.2127 0.996713 9.99852C1.0315 9.93173 1.08424 9.873 1.13586 9.81887C3.91646 6.96305 6.69706 4.10953 9.47766 1.25601C9.73126 0.995766 9.90743 0.994614 10.1577 1.25141C12.9416 4.10953 15.7267 6.96766 18.5096 9.82694C18.578 9.89718 18.6285 9.98355 18.688 10.063C18.688 10.1344 18.688 10.2058 18.688 10.276Z" fill="black" stroke="black"/>
<path d="M18.688 17.4156C18.4681 17.7564 18.2492 17.7771 17.9631 17.4835C15.297 14.7474 12.6308 12.0114 9.96466 9.27417C9.9209 9.22926 9.88499 9.17398 9.80308 9.06919C9.74248 9.16477 9.71331 9.23386 9.66506 9.28338C7.00452 12.0171 4.34174 14.7486 1.68008 17.4812C1.5544 17.6102 1.42648 17.7242 1.22787 17.6689C0.996713 17.6033 0.88338 17.3522 0.996713 17.138C1.0315 17.0713 1.08424 17.0125 1.13586 16.9584C3.91646 14.1026 6.69706 11.2491 9.47766 8.39554C9.73126 8.13529 9.90743 8.13414 10.1577 8.39093C12.9416 11.2491 15.7267 14.1072 18.5096 16.9665C18.578 17.0367 18.6285 17.1231 18.688 17.2025C18.688 17.2739 18.688 17.3453 18.688 17.4156Z" fill="black" stroke="black"/>
</svg>
