<svg width="24" height="25" viewBox="0 0 24 25" fill="none" xmlns="http://www.w3.org/2000/svg">
<path d="M0.655753 2.5757e-05C0.813619 0.136606 0.980593 0.265599 1.12783 0.412803C4.67983 3.96086 8.2303 7.51044 11.7793 11.06C11.8445 11.1253 11.8946 11.2057 11.9523 11.2801C11.9872 11.2937 12.0237 11.3059 12.0586 11.3195C12.1056 11.2376 12.1375 11.1405 12.2013 11.0767C15.7608 7.51499 19.3235 3.9548 22.8861 0.397629C23.0288 0.254978 23.1897 0.133573 23.3415 0.00154523L23.6693 0.00154523C24.0974 0.34755 24.108 0.602499 23.7118 0.997066C19.9792 4.72875 16.2466 8.46044 12.5139 12.1906C12.1041 12.6003 11.8886 12.5988 11.4772 12.1876C7.81287 8.52266 4.14551 4.85774 0.479671 1.19131C0.311179 1.02286 0.159384 0.834685 1.41189e-07 0.657131L1.49006e-07 0.00154495L0.655753 0.00154496L0.655753 2.5757e-05Z" fill="#417B85"/>
<path d="M1.44835e-07 11.8571C0.297518 11.4079 0.593517 11.3805 0.980593 11.7675C4.58723 15.3732 8.19387 18.979 11.8005 22.5862C11.8597 22.6454 11.9083 22.7183 12.0191 22.8563C12.1011 22.7304 12.1405 22.6393 12.2058 22.5741C15.8049 18.9714 19.4069 15.3717 23.0075 11.7706C23.1775 11.6006 23.3506 11.4504 23.6192 11.5232C23.9319 11.6097 24.0853 11.9405 23.9319 12.2228C23.8849 12.3108 23.8135 12.3882 23.7437 12.4595C19.9822 16.2231 16.2208 19.9836 12.4593 23.7441C12.1162 24.0871 11.8779 24.0886 11.5394 23.7502C7.7734 19.9836 4.00586 16.217 0.241354 12.4489C0.148759 12.3563 0.0804513 12.2425 1.41487e-07 12.1378C1.42609e-07 12.0437 1.43731e-07 11.9496 1.44835e-07 11.8571Z" fill="#417B85"/>
</svg>
