<svg width="256" height="86" viewBox="0 0 256 86" fill="none" xmlns="http://www.w3.org/2000/svg">
<path d="M229.01 19C243.813 19 256 34.1258 256 52.5C256 70.8742 243.92 86 229.01 86H0V19" fill="#86CAE7"/>
<path d="M201.524 18.803C201.524 19.007 188.448 19.1906 141.093 19.2008C142.583 19.109 144.839 18.7826 147.313 17.5689C148.922 16.7836 150.244 15.7942 151.744 14.4173C156.206 10.307 156.533 7.88982 159.296 5.09522C163.916 0.434171 170.007 0.0975965 171.149 0.0364011C172.372 -0.0349936 180.072 -0.453163 184.752 4.93204C187.008 7.53284 187.087 9.78687 190.922 13.7238C192.78 15.631 194.132 16.5082 195.155 17.0589C198.553 18.8744 201.534 18.701 201.534 18.803H201.524Z" fill="#86CAE7"/>
</svg>
