<svg width="27" height="25" viewBox="0 0 27 25" fill="none" xmlns="http://www.w3.org/2000/svg">
<path d="M13.5121 24.5749C13.4361 24.4678 13.3809 24.3658 13.3049 24.2853C9.65653 20.3752 6.01138 16.4626 2.35422 12.5628C1.22051 11.354 0.486836 9.93266 0.32202 8.22693C0.102799 5.96519 0.72446 3.98274 2.25101 2.37896C3.70955 0.84629 5.49293 0.202036 7.51792 0.400795C9.10048 0.555861 10.451 1.28493 11.5751 2.49119C12.0032 2.95039 12.4304 3.41045 12.8608 3.86794C13.3457 4.38197 13.7921 4.37169 14.289 3.85937C14.9643 3.16286 15.5947 2.40124 16.338 1.79896C20.2296 -1.35548 25.8749 1.00393 26.739 6.14939C27.1462 8.57305 26.5174 10.7148 24.8844 12.466C21.1545 16.466 17.4069 20.4472 13.6665 24.4352C13.6393 24.4643 13.6081 24.4892 13.5137 24.5757L13.5121 24.5749Z" fill="white"/>
</svg>
