<?xml version="1.0" encoding="UTF-8"?>
<svg id="Calque_2" data-name="Calque 2" xmlns="http://www.w3.org/2000/svg" viewBox="0 0 2765.93 1511.93">
  <defs>
    <style>
      .cls-1 {
        fill: #fff;
      }
    </style>
  </defs>
  <g id="Calque_4" data-name="Calque 4">
    <path d="m1184.54,648.96h218.37c0,11.81,0,22.12,0,32.43.02,124.08-.61,248.17.28,372.24.63,88.27,68.41,166.34,151.5,177.17,98.91,12.89,184.49-40.12,208.99-131.32,5.65-21.01,7.05-43.67,7.18-65.58.67-117.34.32-234.69.32-352.04,0-10.38,0-20.77,0-32.76h216.88c.88,6.17,2.61,12.56,2.57,18.93-.83,140.39,4.41,281.17-4.33,421.07-13.16,210.71-202.49,371.69-413.91,362.87-108.96-4.54-200.59-46.96-279.2-124.39-5.98,5.19-11.54,9.88-16.96,14.73-115.24,103.27-248.39,136.32-395.99,91.1-149.19-45.71-240.1-149.97-275.84-301.4-6.33-26.83-8.11-55.24-8.31-82.94-.89-125.04-.31-250.08-.56-375.13-.22-108.74-80.2-191.53-184.51-191.49-104.31.04-184.33,82.86-184.53,191.51-.23,120.23-.05,240.47-.06,360.7,0,10.43,0,20.85,0,33.14H6.94c0-14.04,0-27.24,0-40.43,0-116.39-.16-232.77.04-349.16.29-172.73,109.58-366.16,333.57-409.04,216.18-41.39,443.51,117.77,467.79,336,9.1,81.79,5.38,165.07,6.51,247.68.87,63.47.11,126.96.19,190.45.13,107.76,78.03,188.69,182.51,189.73,103.87,1.03,184.31-78.62,185.51-186.83,1.38-124.07.31-248.16.38-372.24,0-7.57.65-15.14,1.11-24.99Zm22.31,22.92c0,135.83-.68,268.48.31,401.12.44,59.83,20.01,115.11,49.59,166.53,84.74,147.28,259.89,220.97,422.96,178.68,170.39-44.18,286.69-192.53,288.07-369.24.92-117.3.22-234.61.12-351.92,0-8.33-1.1-16.65-1.62-24.12h-172.67c0,121.51.33,240.69-.29,359.86-.12,22.9-1.07,46.49-6.51,68.56-25.38,103.1-120.83,165.09-232.29,152.65-96.02-10.72-173.86-100.08-174.45-201.92-.67-116.34-.17-232.69-.18-349.04,0-10.18,0-20.37,0-31.16h-173.04Z"/>
    <path d="m1950.75,1511.93c136.36-192.56,270.12-381.45,406.53-574.09h-299.21c0-14.18-.15-25.25.02-36.32,1.24-77.91,3.38-155.81,3.64-233.72.35-103.71-81.89-185.73-184.28-185.38-100.96.34-183.09,80.87-184.11,183.32-1.23,123.12-.31,246.27-.33,369.4,0,10.37,0,20.73,0,32.83h-219.87v-63.94c0-110.63-3.5-221.4,1.04-331.85,4.08-99.23-82.41-184.57-171.58-189.09-113.88-5.77-198.03,85.47-197.37,187.18.81,124.09.19,248.19.12,372.29,0,7.61-.64,15.22-1.08,24.98h-214.93c-1.18-3.95-2.69-6.64-2.67-9.33.9-145.21-3.32-290.69,4.26-435.56,9.61-183.54,174.36-342.95,357.39-356.58,131.86-9.82,207.75,17.52,335.64,121.17,137.67-126.57,295.21-164,466.55-83.49,171.14,80.42,239.09,227.38,230.98,415.51h484.44c-138.11,195.11-271.99,384.25-409.11,577.96h395.84v214.7h-801.91Zm306.78-769.23c13.49-203.95-55.67-359.92-251.79-432.46-162.07-59.94-303.4-12.49-420.52,111.35-124.01-103.18-205.88-141.44-283.03-130.66,0,51.27-.67,103.01.94,154.68.18,5.81,12.64,14.87,20.5,16.27,101.41,18.05,172.57,100.69,173.1,203.91.54,105.81.13,211.63.13,317.44,0,19.94,0,39.88,0,60.51h170.74c.82-3.96,1.54-5.8,1.54-7.65.13-84.65-.32-169.3.46-253.94.46-49.93-1.02-100.33,5.16-149.66,12.2-97.37,96.9-168.97,197.59-172.39,98.86-3.35,191.39,65.23,206.27,161.52,8.71,56.39,4.27,114.86,5.13,172.41.59,39.02.11,78.06.11,120.45h318.34c-136.38,192.62-270.3,381.77-406.15,573.66h733.96v-166.77h-418.7c137.92-194.84,272.16-384.49,409.61-578.67h-463.38Z"/>
    <path d="m0,120.75C.21,51.74,53.36-.53,122.79,0c66.95.51,120.43,53.95,120.73,120.61.3,67.68-54.42,122.74-122.05,122.8C53.33,243.47-.2,189.41,0,120.75Z"/>
    <path class="cls-1" d="m1206.86,671.89h173.04c0,10.8,0,20.98,0,31.16,0,116.35-.49,232.69.18,349.04.58,101.84,78.43,191.2,174.45,201.92,111.47,12.45,206.91-49.54,232.29-152.65,5.43-22.07,6.39-45.66,6.51-68.56.61-119.17.29-238.35.29-359.86h172.67c.52,7.47,1.61,15.79,1.62,24.12.1,117.31.8,234.62-.12,351.92-1.39,176.71-117.68,325.05-288.07,369.24-163.07,42.29-338.22-31.4-422.96-178.68-29.58-51.41-49.14-106.7-49.59-166.53-.98-132.64-.31-265.29-.31-401.12Z"/>
    <path class="cls-1" d="m2257.53,742.7h463.38c-137.45,194.18-271.7,383.83-409.61,578.67h418.7v166.77h-733.96c135.86-191.89,269.77-381.03,406.15-573.66h-318.34c0-42.4.47-81.43-.11-120.45-.86-57.54,3.58-116.01-5.13-172.41-14.87-96.29-107.41-164.87-206.27-161.52-100.69,3.42-185.38,75.02-197.59,172.39-6.18,49.34-4.7,99.73-5.16,149.66-.77,84.64-.33,169.3-.46,253.94,0,1.84-.72,3.69-1.54,7.65h-170.74c0-20.63,0-40.57,0-60.51,0-105.81.41-211.63-.13-317.44-.53-103.22-71.69-185.86-173.1-203.91-7.86-1.4-20.32-10.46-20.5-16.27-1.61-51.67-.94-103.41-.94-154.68,77.14-10.78,159.02,27.47,283.03,130.66,117.12-123.84,258.45-171.29,420.52-111.35,196.13,72.54,265.28,228.51,251.79,432.46Z"/>
  </g>
</svg>