<svg width="40" height="40" viewBox="0 0 40 40" fill="none" xmlns="http://www.w3.org/2000/svg">
<path fill-rule="evenodd" clip-rule="evenodd" d="M0 8.7723C0 8.44144 0.136153 8.12413 0.378508 7.89017C0.620863 7.65622 0.949566 7.52478 1.29231 7.52478H2.58462C8.27594 7.52478 12.4759 10.6186 15.182 13.5578C16.4485 14.9351 17.4177 16.3074 18.0923 17.3802C18.7643 16.3074 19.7361 14.9351 21.0026 13.5578C23.7087 10.6186 27.9087 7.52478 33.6 7.52478V10.0198C28.9529 10.0198 25.399 12.5398 22.9359 15.2145C21.604 16.6708 20.4602 18.2777 19.5294 20C20.4593 21.7222 21.6023 23.3291 22.9333 24.7855C25.4016 27.4602 28.958 29.9802 33.6 29.9802V32.4753C27.9087 32.4753 23.7087 29.3814 21.0026 26.4422C19.9158 25.2549 18.9418 23.9756 18.0923 22.6198C17.4203 23.6927 16.4485 25.065 15.182 26.4422C12.4759 29.3814 8.27594 32.4753 2.58462 32.4753H1.29231C0.949566 32.4753 0.620863 32.3438 0.378508 32.1099C0.136153 31.8759 0 31.5586 0 31.2277C0 30.8969 0.136153 30.5796 0.378508 30.3456C0.620863 30.1117 0.949566 29.9802 1.29231 29.9802H2.58462C7.23175 29.9802 10.7856 27.4602 13.2487 24.7855C14.5806 23.3293 15.7245 21.7223 16.6553 20C15.7253 18.2778 14.5823 16.6709 13.2513 15.2145C10.783 12.5398 7.22658 10.0198 2.58462 10.0198H1.29231C0.949566 10.0198 0.620863 9.88839 0.378508 9.65444C0.136153 9.42048 0 9.10317 0 8.7723Z" fill="white"/>
<path d="M33.5996 13.6492V3.79466C33.5996 3.67561 33.6281 3.55903 33.6816 3.45858C33.7351 3.35813 33.8114 3.27796 33.9017 3.22747C33.9919 3.17698 34.0923 3.15825 34.1912 3.17348C34.29 3.18871 34.3832 3.23727 34.4597 3.31346L39.4108 8.24073C39.6625 8.49136 39.6625 8.95251 39.4108 9.20313L34.4597 14.1304C34.3832 14.2066 34.29 14.2552 34.1912 14.2704C34.0923 14.2856 33.9919 14.2669 33.9017 14.2164C33.8114 14.1659 33.7351 14.0857 33.6816 13.9853C33.6281 13.8848 33.5996 13.7683 33.5996 13.6492ZM33.5996 36.2054V26.3508C33.5996 26.2318 33.6281 26.1152 33.6816 26.0147C33.7351 25.9143 33.8114 25.8341 33.9017 25.7836C33.9919 25.7332 34.0923 25.7144 34.1912 25.7297C34.29 25.7449 34.3832 25.7934 34.4597 25.8696L39.4108 30.7969C39.6625 31.0475 39.6625 31.5087 39.4108 31.7593L34.4597 36.6866C34.3832 36.7628 34.29 36.8113 34.1912 36.8266C34.0923 36.8418 33.9919 36.8231 33.9017 36.7726C33.8114 36.7221 33.7351 36.6419 33.6816 36.5415C33.6281 36.441 33.5996 36.3244 33.5996 36.2054Z" fill="white"/>
</svg>
