<svg width="28" height="25" viewBox="0 0 28 25" fill="none" xmlns="http://www.w3.org/2000/svg">
<path d="M0.745117 7.64965C0.821556 7.25709 0.872516 6.85794 0.977266 6.47416C1.69424 3.84122 3.29238 2.02635 5.7986 1.16286C8.12575 0.361628 10.3326 0.737345 12.349 2.18748C12.7652 2.48629 13.1283 2.86567 13.5062 3.21869C13.6846 3.38494 13.8396 3.57756 14.0151 3.76944C14.3867 3.40398 14.7193 3.05536 15.0732 2.73091C16.624 1.31081 18.4408 0.638472 20.504 0.82157C23.4476 1.08303 25.527 2.6672 26.7394 5.43637C27.3113 6.74222 27.438 8.1323 27.2299 9.5546C26.9758 11.2904 26.1965 12.7317 25.004 13.9592C21.5769 17.4864 18.1556 21.0194 14.7321 24.5503C14.2055 25.0937 13.8467 25.0937 13.3215 24.5503C9.88527 20.9945 6.45046 17.4373 3.01211 13.8838C1.92709 12.7625 1.19314 11.4456 0.886671 9.88344C0.83642 9.62345 0.792538 9.36125 0.745117 9.09979C0.745117 8.61641 0.745117 8.13303 0.745117 7.64965ZM13.9854 23.0614C14.0696 22.9874 14.0972 22.9661 14.1206 22.9412C17.4294 19.532 20.7446 16.1285 24.0442 12.709C25.4888 11.212 26.0451 9.38102 25.6848 7.30909C24.9204 2.90962 19.9264 0.892612 16.4838 3.59001C15.827 4.10488 15.2686 4.75597 14.6712 5.35141C14.2317 5.78938 13.8368 5.79817 13.4078 5.35873C13.0271 4.96837 12.6491 4.57507 12.2705 4.18178C11.2767 3.15057 10.0813 2.52731 8.68135 2.39475C6.89069 2.22556 5.31236 2.77559 4.02209 4.08584C2.67238 5.45687 2.12244 7.15163 2.31566 9.08514C2.46146 10.5433 3.11049 11.7584 4.1134 12.7918C7.34862 16.1256 10.5732 19.4712 13.8007 22.8131C13.8672 22.8819 13.9167 22.9691 13.984 23.0606L13.9854 23.0614Z" fill="white"/>
</svg>
